<svg width="555" height="180" viewBox="0 0 555 180" fill="none" xmlns="http://www.w3.org/2000/svg"><path d="M0 176.318V12.6276H74.83C85.8986 12.6276 95.9539 15.0439 104.996 19.8767C114.194 24.7095 121.443 31.413 126.743 39.9873C132.2 48.5616 134.928 58.4609 134.928 69.6854C134.928 80.1305 132.434 89.5622 127.445 97.9806C122.456 106.243 115.909 112.947 107.802 118.091L120.897 140.306C121.677 141.398 122.534 142.255 123.47 142.879C124.561 143.502 125.964 143.814 127.679 143.814H172.5V176.318H119.26C112.245 176.318 105.853 174.681 100.085 171.408C94.317 167.978 89.796 163.535 86.5222 158.078L68.9839 126.977C67.8927 126.977 66.7234 126.977 65.4763 126.977C64.385 126.977 63.2158 126.977 61.9686 126.977H39.2858V176.318H0ZM39.2858 94.4729H70.387C74.908 94.4729 79.1172 93.5375 83.0146 91.6668C86.912 89.6401 89.9519 86.834 92.1345 83.2484C94.4729 79.5069 95.6421 75.0639 95.6421 69.9193C95.6421 64.7747 94.4729 60.4096 92.1345 56.824C89.796 53.0825 86.6781 50.2764 82.7807 48.4057C79.0392 46.379 74.908 45.3657 70.387 45.3657H39.2858V94.4729Z" fill="#311459"/><path d="M172.5 176.318H159.153V56.3564H195.632V176.318H172.5ZM177.392 42.7934C171.624 42.7934 166.636 40.6888 162.426 36.4796C158.217 32.2704 156.113 27.2818 156.113 21.5136C156.113 15.7455 158.217 10.7568 162.426 6.54763C166.636 2.18254 171.624 0 177.392 0C183.161 0 188.149 2.18254 192.358 6.54763C196.568 10.7568 198.672 15.7455 198.672 21.5136C198.672 27.2818 196.568 32.2704 192.358 36.4796C188.149 40.6888 183.161 42.7934 177.392 42.7934Z" fill="#311459"/><path d="M222.181 176.318V5.61225H258.427V176.318H222.181Z" fill="#311459"/><path d="M333.381 179.124C322.78 179.124 313.426 176.396 305.32 170.94C297.213 165.483 290.899 158.156 286.378 148.959C281.857 139.605 279.597 129.082 279.597 117.39C279.597 105.23 282.247 94.395 287.547 84.8853C292.848 75.2198 300.331 67.5809 309.996 61.9686C319.818 56.3564 331.354 53.5502 344.605 53.5502C358.012 53.5502 369.393 56.3564 378.747 61.9686C388.256 67.425 395.505 74.9859 400.494 84.6515C405.639 94.1611 408.211 104.84 408.211 116.688V176.318H372.667V157.143H371.731C369.549 161.352 366.743 165.172 363.313 168.601C359.883 171.875 355.674 174.447 350.685 176.318C345.853 178.189 340.084 179.124 333.381 179.124ZM344.138 147.789C349.594 147.789 354.349 146.464 358.402 143.814C362.611 141.008 365.807 137.188 367.99 132.356C370.172 127.523 371.264 122.144 371.264 116.22C371.264 110.452 370.172 105.23 367.99 100.553C365.807 95.876 362.611 92.2124 358.402 89.5622C354.349 86.7561 349.594 85.353 344.138 85.353C338.525 85.353 333.615 86.7561 329.406 89.5622C325.196 92.2124 322 95.876 319.818 100.553C317.635 105.23 316.544 110.452 316.544 116.22C316.544 122.144 317.635 127.523 319.818 132.356C322 137.188 325.196 141.008 329.406 143.814C333.615 146.464 338.525 147.789 344.138 147.789Z" fill="#311459"/><path d="M426.129 176.318L462.609 123.937C456.217 120.663 450.839 116.766 446.474 112.245C442.264 107.568 438.991 102.268 436.652 96.3437C434.47 90.4196 433.378 84.1058 433.378 77.4023V56.3564H469.624V75.5315C469.624 79.2731 470.326 82.7807 471.729 86.0545C473.288 89.1724 475.314 91.8227 477.809 94.0052C480.459 96.0319 483.343 97.5129 486.461 98.4482L514.055 56.3564H554.977L520.368 106.633C527.384 109.439 533.308 113.336 538.14 118.325C543.129 123.158 546.871 128.692 549.365 134.928C552.015 141.164 553.34 147.867 553.34 155.038V176.318H516.861V156.208C516.861 151.998 515.847 148.179 513.821 144.749C511.95 141.32 509.378 138.513 506.104 136.331C502.986 134.148 499.478 132.901 495.581 132.589L466.818 176.318H426.129Z" fill="#311459"/></svg>
